<?xml version="1.0" encoding="utf-8"?>
<!-- Generator: Adobe Illustrator 15.0.0, SVG Export Plug-In  -->
<!DOCTYPE svg [
	<!ENTITY ns_flows "http://ns.adobe.com/Flows/1.0/">
]>
<svg version="1.2" baseProfile="tiny"
	 xmlns="http://www.w3.org/2000/svg" xmlns:xlink="http://www.w3.org/1999/xlink" xmlns:a="http://ns.adobe.com/AdobeSVGViewerExtensions/3.0/"
	 x="0px" y="0px" width="1000px" height="1000px" viewBox="-110.511 -35.48 1000 1000" overflow="visible" xml:space="preserve">
<defs>
</defs>
<g>
	<path fill="#7FC1EE" d="M183.489,453.297c0-22.096-18.168-24.279-35.034-26.021c-22.095-2.477-29.223-5.962-29.223-19.051
		c0-17.443,17.008-20.936,27.48-20.936c19.184,0,27.913,6.694,29.947,18.9l6.104-0.867c-2.176-13.957-12.498-23.262-35.91-23.262
		c-17.441,0-33.583,7.121-33.583,26.164c0,13.522,8.288,18.9,19.627,21.519v0.149c-12.356,3.485-22.387,12.356-22.387,26.313
		c0,22.095,18.168,24.278,35.034,26.021c22.103,2.476,29.223,5.961,29.223,19.044c0,17.449-17.008,20.934-27.479,20.934
		c-19.185,0-27.914-6.686-29.948-18.893l-6.104,0.867c2.184,13.957,12.506,23.262,35.91,23.262c17.449,0,33.583-7.119,33.583-26.17
		c0-13.517-8.288-18.895-19.626-21.512v-0.15C173.459,476.125,183.489,467.254,183.489,453.297z M145.986,476.417
		c-14.54,0-29.664-3.344-29.664-20.068c0-17.3,16.434-23.262,31.699-23.262c14.532,0,29.656,3.344,29.656,20.068
		C177.678,470.456,161.244,476.417,145.986,476.417z"/>
	<path fill="#7FC1EE" d="M147,307.751c-81.056,0-147,65.944-147,147c0,81.056,65.944,147.001,147,147.001s147-65.945,147-147.001
		C294,373.695,228.056,307.751,147,307.751z M147,596.752c-78.299,0-142-63.701-142-142.001c0-78.299,63.701-142,142-142
		s142,63.701,142,142C289,533.051,225.299,596.752,147,596.752z"/>
</g>
<g>
	<path fill="#7FC1EE" d="M147,615.502c-81.056,0-147,65.945-147,147c0,81.057,65.944,147,147,147s147-65.943,147-147
		C294,681.448,228.056,615.502,147,615.502z M147,904.502c-78.299,0-142-63.701-142-142s63.701-142,142-142s142,63.701,142,142
		S225.299,904.502,147,904.502z"/>
	<path fill="#7FC1EE" d="M111.821,799.948l10.85,32.465l18.065-24.527l81.764,22.445V692.153L34.219,778.645L111.821,799.948z
		 M138.747,802.155l-3.177,4.312l-11.212,15.223l-6.732-20.148l-0.983-2.941l2.038-1.953l82.077-78.686L138.747,802.155z
		 M217.5,823.774l-73.588-20.201l73.588-99.912V823.774z M113.063,795.104l-64.282-17.646l158.771-72.938L113.063,795.104z"/>
</g>
<g>
	<polygon fill="#7FC1EE" points="205.249,84.917 226.197,86.019 174.067,129.603 122.178,107.649 42.037,165.473 44.963,169.527 
		122.821,113.351 174.932,135.397 229.411,89.849 226.78,110.671 231.746,111.293 235.503,81.504 205.517,79.92 	"/>
	<path fill="#7FC1EE" d="M147,0C65.944,0,0,65.944,0,147s65.944,147,147,147s147-65.944,147-147S228.056,0,147,0z M232,138.5
		v122.182c-4.47,3.351-9.146,6.442-14,9.256V177.5h-25v103.849c-4.567,1.568-9.237,2.914-14,4.015V197.5h-25v91.326
		c-2.319,0.113-4.653,0.174-7,0.174s-4.681-0.061-7-0.174V166.5h-25v118.864c-4.763-1.101-9.433-2.447-14-4.015V197.5H76v72.438
		c-4.854-2.814-9.53-5.906-14-9.256V211H37v25.694C17.009,212.224,5,180.989,5,147C5,68.701,68.701,5,147,5s142,63.701,142,142
		c0,33.989-12.009,65.224-32,89.694V138.5H232z"/>
</g>
<g>
	<g>
		<path fill="#7FC1EE" d="M361.093,0.649c0.731,0.902,0.816,2.086,0.254,3.552c-0.508,1.579-1.354,2.96-2.537,4.144l-3.891,3.89
			l3.806,16.83c0.112,0.338,0.027,0.592-0.254,0.761l-3.129,2.368c-0.113,0.114-0.254,0.169-0.423,0.169l-0.169-0.084
			c-0.227,0-0.396-0.112-0.508-0.339l-6.766-12.262l-6.258,6.258l1.269,4.651c0.056,0.226,0,0.479-0.169,0.761l-2.284,2.283
			c-0.169,0.17-0.367,0.254-0.592,0.254h-0.084c-0.283-0.169-0.452-0.281-0.508-0.338l-4.566-6.089l-6.09-4.567
			c-0.226-0.055-0.338-0.225-0.338-0.507c0-0.112,0.056-0.338,0.169-0.676l2.368-2.284c0.169-0.169,0.338-0.253,0.508-0.253h0.253
			l4.651,1.353l6.259-6.258L329.802,7.5c-0.169-0.112-0.311-0.309-0.423-0.592c0-0.282,0.084-0.507,0.254-0.677l3.044-3.044
			c0.225-0.225,0.479-0.309,0.762-0.254l16.068,3.891l3.89-3.891c1.297-1.296,2.678-2.169,4.145-2.622
			C359.063-0.196,360.248-0.083,361.093,0.649z"/>
	</g>
</g>
</svg>
