<?xml version="1.0" encoding="utf-8"?>
<!-- Generator: Adobe Illustrator 16.0.0, SVG Export Plug-In . SVG Version: 6.00 Build 0)  -->
<!DOCTYPE svg PUBLIC "-//W3C//DTD SVG 1.1//EN" "http://www.w3.org/Graphics/SVG/1.1/DTD/svg11.dtd">
<svg version="1.1" id="Layer_1" xmlns="http://www.w3.org/2000/svg" xmlns:xlink="http://www.w3.org/1999/xlink" x="0px" y="0px"
	 width="1290.588px" height="313.292px" viewBox="0 0 1290.588 313.292" enable-background="new 0 0 1290.588 313.292"
	 xml:space="preserve">
<g>
	<linearGradient id="SVGID_1_" gradientUnits="userSpaceOnUse" x1="1260.0205" y1="343.0898" x2="10.0205" y2="69.0899">
		<stop  offset="0" style="stop-color:#FFF166"/>
		<stop  offset="0.0782" style="stop-color:#F0E660"/>
		<stop  offset="0.1758" style="stop-color:#E5DD5B"/>
		<stop  offset="0.28" style="stop-color:#E1DA59"/>
		<stop  offset="0.67" style="stop-color:#24B34B"/>
		<stop  offset="0.89" style="stop-color:#21777E"/>
		<stop  offset="1" style="stop-color:#2E3192"/>
	</linearGradient>
	<path fill="url(#SVGID_1_)" d="M0.825,138.298V2.244h29.169V112.8h57.522v25.498H0.825z"/>
	<linearGradient id="SVGID_2_" gradientUnits="userSpaceOnUse" x1="1266.9131" y1="311.6455" x2="16.9131" y2="37.6455">
		<stop  offset="0" style="stop-color:#FFF166"/>
		<stop  offset="0.0782" style="stop-color:#F0E660"/>
		<stop  offset="0.1758" style="stop-color:#E5DD5B"/>
		<stop  offset="0.28" style="stop-color:#E1DA59"/>
		<stop  offset="0.67" style="stop-color:#24B34B"/>
		<stop  offset="0.89" style="stop-color:#21777E"/>
		<stop  offset="1" style="stop-color:#2E3192"/>
	</linearGradient>
	<path fill="url(#SVGID_2_)" d="M95.066,70.373c0-41,29.985-70.373,71.188-70.373c41,0,70.985,29.373,70.985,70.373
		c0,41-29.985,70.373-70.985,70.373C125.051,140.746,95.066,111.373,95.066,70.373z M207.458,70.373
		c0-25.498-16.114-44.671-41.204-44.671c-25.293,0-41.408,19.174-41.408,44.671c0,25.293,16.114,44.671,41.408,44.671
		C191.344,115.044,207.458,95.666,207.458,70.373z"/>
	<linearGradient id="SVGID_3_" gradientUnits="userSpaceOnUse" x1="1275.5068" y1="272.4395" x2="25.5068" y2="-1.5605">
		<stop  offset="0" style="stop-color:#FFF166"/>
		<stop  offset="0.0782" style="stop-color:#F0E660"/>
		<stop  offset="0.1758" style="stop-color:#E5DD5B"/>
		<stop  offset="0.28" style="stop-color:#E1DA59"/>
		<stop  offset="0.67" style="stop-color:#24B34B"/>
		<stop  offset="0.89" style="stop-color:#21777E"/>
		<stop  offset="1" style="stop-color:#2E3192"/>
	</linearGradient>
	<path fill="url(#SVGID_3_)" d="M357.591,138.298l-23.866-93.423l-23.662,93.423h-30.801L240.303,2.244h32.433l23.866,98.318
		l25.905-98.318h22.642l25.702,98.318l23.866-98.318h32.433l-38.756,136.054H357.591z"/>
	<linearGradient id="SVGID_4_" gradientUnits="userSpaceOnUse" x1="1283.7051" y1="235.042" x2="33.7051" y2="-38.958">
		<stop  offset="0" style="stop-color:#FFF166"/>
		<stop  offset="0.0782" style="stop-color:#F0E660"/>
		<stop  offset="0.1758" style="stop-color:#E5DD5B"/>
		<stop  offset="0.28" style="stop-color:#E1DA59"/>
		<stop  offset="0.67" style="stop-color:#24B34B"/>
		<stop  offset="0.89" style="stop-color:#21777E"/>
		<stop  offset="1" style="stop-color:#2E3192"/>
	</linearGradient>
	<path fill="url(#SVGID_4_)" d="M493.236,138.298V2.244h71.597c25.905,0,39.164,16.522,39.164,34.676
		c0,16.931-10.607,28.557-23.458,31.209c14.687,2.244,26.109,16.318,26.109,33.249c0,20.602-13.463,36.92-39.572,36.92H493.236z
		 M574.42,42.02c0-8.363-6.12-14.278-15.911-14.278h-36.308v28.557h36.308C568.3,56.298,574.42,50.791,574.42,42.02z
		 M577.072,97.298c0-8.567-6.12-15.502-17.338-15.502h-37.532V112.8h37.532C570.544,112.8,577.072,107.089,577.072,97.298z"/>
	<linearGradient id="SVGID_5_" gradientUnits="userSpaceOnUse" x1="1291.8555" y1="197.8555" x2="41.8555" y2="-76.1445">
		<stop  offset="0" style="stop-color:#FFF166"/>
		<stop  offset="0.0782" style="stop-color:#F0E660"/>
		<stop  offset="0.1758" style="stop-color:#E5DD5B"/>
		<stop  offset="0.28" style="stop-color:#E1DA59"/>
		<stop  offset="0.67" style="stop-color:#24B34B"/>
		<stop  offset="0.89" style="stop-color:#21777E"/>
		<stop  offset="1" style="stop-color:#2E3192"/>
	</linearGradient>
	<path fill="url(#SVGID_5_)" d="M628.474,83.835V2.244h29.373V83.02c0,18.97,11.015,32.024,32.025,32.024
		c21.01,0,31.82-13.055,31.82-32.024V2.244h29.577v81.592c0,33.657-19.99,56.91-61.397,56.91
		C648.464,140.746,628.474,117.492,628.474,83.835z"/>
	<linearGradient id="SVGID_6_" gradientUnits="userSpaceOnUse" x1="1296.4531" y1="176.8818" x2="46.4531" y2="-97.1181">
		<stop  offset="0" style="stop-color:#FFF166"/>
		<stop  offset="0.0782" style="stop-color:#F0E660"/>
		<stop  offset="0.1758" style="stop-color:#E5DD5B"/>
		<stop  offset="0.28" style="stop-color:#E1DA59"/>
		<stop  offset="0.67" style="stop-color:#24B34B"/>
		<stop  offset="0.89" style="stop-color:#21777E"/>
		<stop  offset="1" style="stop-color:#2E3192"/>
	</linearGradient>
	<path fill="url(#SVGID_6_)" d="M778.196,138.298V2.244h53.646c42.632,0,72.209,27.129,72.209,67.925
		c0,41.204-29.577,68.129-72.005,68.129H778.196z M874.474,70.169c0-23.866-14.687-42.428-42.428-42.428h-24.886V112.8h24.682
		C858.767,112.8,874.474,93.422,874.474,70.169z"/>
	<linearGradient id="SVGID_7_" gradientUnits="userSpaceOnUse" x1="1304.6953" y1="139.2812" x2="54.6953" y2="-134.7187">
		<stop  offset="0" style="stop-color:#FFF166"/>
		<stop  offset="0.0782" style="stop-color:#F0E660"/>
		<stop  offset="0.1758" style="stop-color:#E5DD5B"/>
		<stop  offset="0.28" style="stop-color:#E1DA59"/>
		<stop  offset="0.67" style="stop-color:#24B34B"/>
		<stop  offset="0.89" style="stop-color:#21777E"/>
		<stop  offset="1" style="stop-color:#2E3192"/>
	</linearGradient>
	<path fill="url(#SVGID_7_)" d="M918.124,70.373C918.124,27.333,950.76,0,990.74,0c28.149,0,45.895,14.278,56.094,30.393
		l-23.865,13.055c-6.324-9.587-17.951-17.746-32.229-17.746c-24.886,0-42.835,18.97-42.835,44.671
		c0,25.702,17.949,44.671,42.835,44.671c12.036,0,23.254-5.303,28.762-10.403V88.323h-35.901V63.029h64.866v52.219
		c-13.871,15.502-33.25,25.498-57.727,25.498C950.76,140.746,918.124,113.208,918.124,70.373z"/>
	<linearGradient id="SVGID_8_" gradientUnits="userSpaceOnUse" x1="1310.6455" y1="112.1367" x2="60.6455" y2="-161.8633">
		<stop  offset="0" style="stop-color:#FFF166"/>
		<stop  offset="0.0782" style="stop-color:#F0E660"/>
		<stop  offset="0.1758" style="stop-color:#E5DD5B"/>
		<stop  offset="0.28" style="stop-color:#E1DA59"/>
		<stop  offset="0.67" style="stop-color:#24B34B"/>
		<stop  offset="0.89" style="stop-color:#21777E"/>
		<stop  offset="1" style="stop-color:#2E3192"/>
	</linearGradient>
	<path fill="url(#SVGID_8_)" d="M1071.514,138.298V2.244h96.279v25.498h-67.314v28.557h65.887v25.498h-65.887V112.8h67.314v25.498
		H1071.514z"/>
	<linearGradient id="SVGID_9_" gradientUnits="userSpaceOnUse" x1="1316.9062" y1="83.5742" x2="66.9062" y2="-190.4258">
		<stop  offset="0" style="stop-color:#FFF166"/>
		<stop  offset="0.0782" style="stop-color:#F0E660"/>
		<stop  offset="0.1758" style="stop-color:#E5DD5B"/>
		<stop  offset="0.28" style="stop-color:#E1DA59"/>
		<stop  offset="0.67" style="stop-color:#24B34B"/>
		<stop  offset="0.89" style="stop-color:#21777E"/>
		<stop  offset="1" style="stop-color:#2E3192"/>
	</linearGradient>
	<path fill="url(#SVGID_9_)" d="M1221.846,138.298V27.741h-39.775V2.244h108.518v25.498h-39.572v110.557H1221.846z"/>
</g>
<g>
	<linearGradient id="SVGID_10_" gradientUnits="userSpaceOnUse" x1="1224.6729" y1="504.3496" x2="-25.3271" y2="230.3496">
		<stop  offset="0" style="stop-color:#FFF166"/>
		<stop  offset="0.0782" style="stop-color:#F0E660"/>
		<stop  offset="0.1758" style="stop-color:#E5DD5B"/>
		<stop  offset="0.28" style="stop-color:#E1DA59"/>
		<stop  offset="0.67" style="stop-color:#24B34B"/>
		<stop  offset="0.89" style="stop-color:#21777E"/>
		<stop  offset="1" style="stop-color:#2E3192"/>
	</linearGradient>
	<path fill="url(#SVGID_10_)" d="M0,310.868V176.154h63.015c29.286,0,45.241,19.793,45.241,43.423
		c0,23.429-16.157,43.223-45.241,43.223H28.68v48.068H0z M78.971,219.577c0-11.31-8.685-18.176-19.995-18.176H28.68v36.152h30.296
		C70.286,237.553,78.971,230.686,78.971,219.577z"/>
	<linearGradient id="SVGID_11_" gradientUnits="userSpaceOnUse" x1="1230.459" y1="477.9492" x2="-19.5411" y2="203.9492">
		<stop  offset="0" style="stop-color:#FFF166"/>
		<stop  offset="0.0782" style="stop-color:#F0E660"/>
		<stop  offset="0.1758" style="stop-color:#E5DD5B"/>
		<stop  offset="0.28" style="stop-color:#E1DA59"/>
		<stop  offset="0.67" style="stop-color:#24B34B"/>
		<stop  offset="0.89" style="stop-color:#21777E"/>
		<stop  offset="1" style="stop-color:#2E3192"/>
	</linearGradient>
	<path fill="url(#SVGID_11_)" d="M202.376,310.868l-26.458-47.867h-21.005v47.867h-28.68V176.154h63.015
		c28.074,0,45.443,18.379,45.443,43.423c0,23.631-15.148,36.558-29.689,39.991l30.498,51.3H202.376z M205.204,219.376
		c0-11.109-8.685-17.975-19.995-17.975h-30.296v36.354h30.296C196.519,237.755,205.204,230.888,205.204,219.376z"/>
	<linearGradient id="SVGID_12_" gradientUnits="userSpaceOnUse" x1="1237.7344" y1="444.7617" x2="-12.2656" y2="170.7617">
		<stop  offset="0" style="stop-color:#FFF166"/>
		<stop  offset="0.0782" style="stop-color:#F0E660"/>
		<stop  offset="0.1758" style="stop-color:#E5DD5B"/>
		<stop  offset="0.28" style="stop-color:#E1DA59"/>
		<stop  offset="0.67" style="stop-color:#24B34B"/>
		<stop  offset="0.89" style="stop-color:#21777E"/>
		<stop  offset="1" style="stop-color:#2E3192"/>
	</linearGradient>
	<path fill="url(#SVGID_12_)" d="M249.636,243.612c0-40.595,29.689-69.679,70.488-69.679c40.596,0,70.286,29.084,70.286,69.679
		c0,40.597-29.69,69.681-70.286,69.681C279.325,313.292,249.636,284.208,249.636,243.612z M360.922,243.612
		c0-25.246-15.956-44.231-40.798-44.231c-25.044,0-41,18.985-41,44.231c0,25.044,15.957,44.232,41,44.232
		C344.966,287.844,360.922,268.656,360.922,243.612z"/>
	<linearGradient id="SVGID_13_" gradientUnits="userSpaceOnUse" x1="1243.3535" y1="419.1279" x2="-6.6465" y2="145.128">
		<stop  offset="0" style="stop-color:#FFF166"/>
		<stop  offset="0.0782" style="stop-color:#F0E660"/>
		<stop  offset="0.1758" style="stop-color:#E5DD5B"/>
		<stop  offset="0.28" style="stop-color:#E1DA59"/>
		<stop  offset="0.67" style="stop-color:#24B34B"/>
		<stop  offset="0.89" style="stop-color:#21777E"/>
		<stop  offset="1" style="stop-color:#2E3192"/>
	</linearGradient>
	<path fill="url(#SVGID_13_)" d="M410.607,310.868V176.154h53.118c42.213,0,71.498,26.862,71.498,67.256
		c0,40.798-29.285,67.458-71.296,67.458H410.607z M505.938,243.41c0-23.63-14.542-42.009-42.011-42.009h-24.64v84.221h24.438
		C490.385,285.622,505.938,266.435,505.938,243.41z"/>
	<linearGradient id="SVGID_14_" gradientUnits="userSpaceOnUse" x1="1252.2461" y1="378.5596" x2="2.2461" y2="104.5596">
		<stop  offset="0" style="stop-color:#FFF166"/>
		<stop  offset="0.0782" style="stop-color:#F0E660"/>
		<stop  offset="0.1758" style="stop-color:#E5DD5B"/>
		<stop  offset="0.28" style="stop-color:#E1DA59"/>
		<stop  offset="0.67" style="stop-color:#24B34B"/>
		<stop  offset="0.89" style="stop-color:#21777E"/>
		<stop  offset="1" style="stop-color:#2E3192"/>
	</linearGradient>
	<path fill="url(#SVGID_14_)" d="M555.621,256.942v-80.788h29.083v79.98c0,18.782,10.906,31.709,31.709,31.709
		c20.804,0,31.507-12.927,31.507-31.709v-79.98h29.286v80.788c0,33.326-19.792,56.35-60.793,56.35
		C575.415,313.292,555.621,290.268,555.621,256.942z"/>
	<linearGradient id="SVGID_15_" gradientUnits="userSpaceOnUse" x1="1258.3057" y1="350.9111" x2="8.3057" y2="76.9112">
		<stop  offset="0" style="stop-color:#FFF166"/>
		<stop  offset="0.0782" style="stop-color:#F0E660"/>
		<stop  offset="0.1758" style="stop-color:#E5DD5B"/>
		<stop  offset="0.28" style="stop-color:#E1DA59"/>
		<stop  offset="0.67" style="stop-color:#24B34B"/>
		<stop  offset="0.89" style="stop-color:#21777E"/>
		<stop  offset="1" style="stop-color:#2E3192"/>
	</linearGradient>
	<path fill="url(#SVGID_15_)" d="M697.404,243.612c0-41.605,31.306-69.679,71.902-69.679c29.487,0,46.654,15.956,56.146,32.921
		l-24.641,12.118c-5.654-10.907-17.771-19.591-31.506-19.591c-24.642,0-42.415,18.784-42.415,44.231
		c0,25.449,17.773,44.232,42.415,44.232c13.734,0,25.852-8.685,31.506-19.591l24.641,11.917
		c-9.492,16.763-26.659,33.123-56.146,33.123C728.709,313.292,697.404,285.017,697.404,243.612z"/>
	<linearGradient id="SVGID_16_" gradientUnits="userSpaceOnUse" x1="1264.6973" y1="321.7529" x2="14.6973" y2="47.753">
		<stop  offset="0" style="stop-color:#FFF166"/>
		<stop  offset="0.0782" style="stop-color:#F0E660"/>
		<stop  offset="0.1758" style="stop-color:#E5DD5B"/>
		<stop  offset="0.28" style="stop-color:#E1DA59"/>
		<stop  offset="0.67" style="stop-color:#24B34B"/>
		<stop  offset="0.89" style="stop-color:#21777E"/>
		<stop  offset="1" style="stop-color:#2E3192"/>
	</linearGradient>
	<path fill="url(#SVGID_16_)" d="M873.724,310.868V201.401h-39.385v-25.247h107.447v25.247h-39.18v109.467H873.724z"/>
	<linearGradient id="SVGID_17_" gradientUnits="userSpaceOnUse" x1="1267.7578" y1="307.793" x2="17.7578" y2="33.793">
		<stop  offset="0" style="stop-color:#FFF166"/>
		<stop  offset="0.0782" style="stop-color:#F0E660"/>
		<stop  offset="0.1758" style="stop-color:#E5DD5B"/>
		<stop  offset="0.28" style="stop-color:#E1DA59"/>
		<stop  offset="0.67" style="stop-color:#24B34B"/>
		<stop  offset="0.89" style="stop-color:#21777E"/>
		<stop  offset="1" style="stop-color:#2E3192"/>
	</linearGradient>
	<path fill="url(#SVGID_17_)" d="M960.166,310.868V176.154h28.679v134.714H960.166z"/>
	<linearGradient id="SVGID_18_" gradientUnits="userSpaceOnUse" x1="1272.5498" y1="285.9316" x2="22.5498" y2="11.9317">
		<stop  offset="0" style="stop-color:#FFF166"/>
		<stop  offset="0.0782" style="stop-color:#F0E660"/>
		<stop  offset="0.1758" style="stop-color:#E5DD5B"/>
		<stop  offset="0.28" style="stop-color:#E1DA59"/>
		<stop  offset="0.67" style="stop-color:#24B34B"/>
		<stop  offset="0.89" style="stop-color:#21777E"/>
		<stop  offset="1" style="stop-color:#2E3192"/>
	</linearGradient>
	<path fill="url(#SVGID_18_)" d="M1009.041,243.612c0-40.595,29.688-69.679,70.486-69.679c40.598,0,70.285,29.084,70.285,69.679
		c0,40.597-29.688,69.681-70.285,69.681C1038.729,313.292,1009.041,284.208,1009.041,243.612z M1120.326,243.612
		c0-25.246-15.955-44.231-40.799-44.231c-25.043,0-41,18.985-41,44.231c0,25.044,15.957,44.232,41,44.232
		C1104.371,287.844,1120.326,268.656,1120.326,243.612z"/>
	<linearGradient id="SVGID_19_" gradientUnits="userSpaceOnUse" x1="1279.4844" y1="254.293" x2="29.4844" y2="-19.707">
		<stop  offset="0" style="stop-color:#FFF166"/>
		<stop  offset="0.0782" style="stop-color:#F0E660"/>
		<stop  offset="0.1758" style="stop-color:#E5DD5B"/>
		<stop  offset="0.28" style="stop-color:#E1DA59"/>
		<stop  offset="0.67" style="stop-color:#24B34B"/>
		<stop  offset="0.89" style="stop-color:#21777E"/>
		<stop  offset="1" style="stop-color:#2E3192"/>
	</linearGradient>
	<path fill="url(#SVGID_19_)" d="M1262.918,310.868l-64.227-87.856v87.856h-28.68V176.154h29.488l62.406,84.625v-84.625h28.682
		v134.714H1262.918z"/>
</g>
</svg>
