<?xml version="1.0" encoding="utf-8"?>
<!-- Generated by IcoMoon.io -->
<!DOCTYPE svg PUBLIC "-//W3C//DTD SVG 1.1//EN" "http://www.w3.org/Graphics/SVG/1.1/DTD/svg11.dtd">
<svg version="1.1" xmlns="http://www.w3.org/2000/svg" xmlns:xlink="http://www.w3.org/1999/xlink" width="85" height="32" viewBox="0 0 85 32">
<g id="icomoon-ignore">
	<line stroke-width="1" x1="" y1="" x2="" y2="" stroke="#449FDB" opacity=""></line>
</g>
<g id="nexus"
	<path d="M1.928 28.493c-0.022-0.085-0.080-0.098-0.165-0.098h-0.053v-0.276h0.138c0.223 0 0.325 0.040 0.378 0.258l0.543 2.16c0.040 0.16 0.067 0.334 0.067 0.334h0.009c0 0 0.040-0.174 0.085-0.334l0.69-2.405h0.307l0.628 2.405c0.045 0.16 0.071 0.334 0.071 0.334h0.009c0 0 0.031-0.174 0.071-0.334l0.543-2.16c0.053-0.218 0.156-0.258 0.378-0.258h0.138v0.276h-0.049c-0.089 0-0.143 0.013-0.165 0.098l-0.721 2.756h-0.37l-0.583-2.178c-0.053-0.2-0.102-0.463-0.102-0.463h-0.009c0 0-0.053 0.258-0.111 0.459l-0.641 2.182h-0.37l-0.717-2.756z" fill="rgb(66, 78, 93)"></path>
	<path d="M10.235 28.066c0.886 0 1.594 0.699 1.594 1.599 0 0.917-0.708 1.639-1.594 1.639-0.89 0-1.594-0.721-1.594-1.639 0-0.899 0.704-1.599 1.594-1.599zM10.235 31.009c0.699 0 1.269-0.588 1.269-1.345 0-0.739-0.57-1.305-1.269-1.305-0.704 0-1.269 0.565-1.269 1.305-0 0.757 0.565 1.345 1.269 1.345z" fill="rgb(66, 78, 93)"></path>
	<path d="M15.145 28.395h-0.29v-0.276h1.327c0.525 0 0.9 0.347 0.9 0.89 0 0.485-0.298 0.77-0.605 0.837v0.009c0 0 0.062 0.035 0.107 0.125l0.45 0.89c0.045 0.093 0.111 0.102 0.223 0.102h0.062v0.276h-0.138c-0.254 0-0.33-0.031-0.432-0.236l-0.45-0.895c-0.085-0.165-0.143-0.187-0.316-0.187h-0.525v1.318h-0.312v-2.854zM16.151 29.655c0.374 0 0.605-0.245 0.605-0.637 0-0.387-0.232-0.623-0.601-0.623h-0.699v1.26h0.695z" fill="rgb(66, 78, 93)"></path>
	<path d="M20.513 28.493c0-0.067-0.035-0.098-0.098-0.098h-0.192v-0.276h0.33c0.192 0 0.272 0.080 0.272 0.272v2.485c0 0.067 0.035 0.098 0.098 0.098h1.038c0.062 0 0.098-0.031 0.098-0.098v-0.209h0.294v0.312c0 0.192-0.080 0.272-0.272 0.272h-1.296c-0.192 0-0.272-0.080-0.272-0.272v-2.484z" fill="rgb(66, 78, 93)"></path>
	<path d="M25.409 28.395h-0.29v-0.276h1.256c0.944 0 1.572 0.575 1.572 1.563 0 0.997-0.628 1.567-1.572 1.567h-0.694c-0.192 0-0.272-0.080-0.272-0.272v-2.582zM25.818 30.973h0.525c0.77 0 1.278-0.454 1.278-1.291 0-0.833-0.512-1.287-1.278-1.287h-0.623v2.48c0 0.067 0.036 0.098 0.098 0.098z" fill="rgb(66, 78, 93)"></path>
	<path d="M38.002 28.395h-0.29v-0.276h1.331c0.49 0 0.846 0.298 0.846 0.788 0 0.343-0.174 0.57-0.401 0.681v0.009c0.32 0.089 0.525 0.396 0.525 0.775 0 0.557-0.41 0.877-0.935 0.877h-0.806c-0.191 0-0.272-0.080-0.272-0.272v-2.582zM39.040 29.477c0.316 0 0.53-0.223 0.53-0.548 0-0.32-0.205-0.534-0.534-0.534h-0.721v1.082h0.726zM38.412 30.973h0.668c0.378 0 0.61-0.236 0.61-0.61s-0.249-0.619-0.615-0.619h-0.761v1.131c0 0.067 0.036 0.098 0.098 0.098z" fill="rgb(66, 78, 93)"></path>
	<path d="M43.348 28.493c0-0.067-0.035-0.098-0.098-0.098h-0.191v-0.276h0.33c0.191 0 0.272 0.080 0.272 0.272v1.772c0 0.521 0.33 0.846 0.842 0.846s0.846-0.325 0.846-0.855v-1.763c0-0.192 0.080-0.272 0.272-0.272h0.33v0.276h-0.191c-0.062 0-0.098 0.031-0.098 0.098v1.683c0 0.677-0.463 1.127-1.153 1.127s-1.158-0.45-1.158-1.127v-1.683z" fill="rgb(66, 78, 93)"></path>
	<path d="M49.13 30.63c0 0 0.316 0.383 0.81 0.383 0.343 0 0.619-0.223 0.619-0.557 0-0.775-1.545-0.619-1.545-1.59 0-0.436 0.378-0.802 0.957-0.802 0.303 0 0.846 0.129 0.846 0.539v0.223h-0.294v-0.147c0-0.187-0.258-0.325-0.548-0.325-0.405 0-0.641 0.236-0.641 0.503 0 0.726 1.545 0.548 1.545 1.581 0 0.468-0.361 0.864-0.948 0.864-0.641 0-0.993-0.445-0.993-0.445l0.192-0.227z" fill="rgb(66, 78, 93)"></path>
	<path d="M54.111 30.63c0 0 0.316 0.383 0.81 0.383 0.343 0 0.619-0.223 0.619-0.557 0-0.775-1.545-0.619-1.545-1.59 0-0.436 0.378-0.802 0.957-0.802 0.303 0 0.846 0.129 0.846 0.539v0.223h-0.294v-0.147c0-0.187-0.258-0.325-0.548-0.325-0.405 0-0.641 0.236-0.641 0.503 0 0.726 1.545 0.548 1.545 1.581 0 0.468-0.361 0.864-0.948 0.864-0.641 0-0.993-0.445-0.993-0.445l0.192-0.227z" fill="rgb(66, 78, 93)"></path>
	<path d="M58.94 30.973h0.294v-2.578h-0.294v-0.276h0.895v0.276h-0.298v2.578h0.298v0.276h-0.895v-0.276z" fill="rgb(66, 78, 93)"></path>
	<path d="M62.9 30.973h0.191c0.062 0 0.098-0.031 0.098-0.098v-2.756h0.285l1.599 2.231c0.107 0.156 0.254 0.41 0.254 0.41h0.009c0 0-0.022-0.245-0.022-0.41v-1.959c0-0.192 0.080-0.272 0.272-0.272h0.33v0.276h-0.192c-0.062 0-0.098 0.031-0.098 0.098v2.756h-0.285l-1.599-2.231c-0.111-0.151-0.258-0.405-0.258-0.405h-0.009c0 0 0.027 0.24 0.027 0.405v1.959c0 0.192-0.080 0.272-0.272 0.272h-0.33v-0.276z" fill="rgb(66, 78, 93)"></path>
	<path d="M69.248 28.395h-0.29v-0.276h1.79c0.192 0 0.272 0.080 0.272 0.272v0.312h-0.294v-0.209c0-0.067-0.035-0.098-0.098-0.098h-1.069v1.14h1.175v0.276h-1.175v1.064c0 0.067 0.035 0.098 0.098 0.098h1.1c0.062 0 0.098-0.031 0.098-0.098v-0.209h0.29v0.312c0 0.192-0.080 0.272-0.272 0.272h-1.354c-0.192 0-0.272-0.080-0.272-0.272v-2.582z" fill="rgb(66, 78, 93)"></path>
	<path d="M74.286 30.63c0 0 0.316 0.383 0.81 0.383 0.343 0 0.619-0.223 0.619-0.557 0-0.775-1.545-0.619-1.545-1.59 0-0.436 0.378-0.802 0.957-0.802 0.303 0 0.846 0.129 0.846 0.539v0.223h-0.294v-0.147c0-0.187-0.258-0.325-0.548-0.325-0.405 0-0.641 0.236-0.641 0.503 0 0.726 1.545 0.548 1.545 1.581 0 0.468-0.361 0.864-0.948 0.864-0.641 0-0.993-0.445-0.993-0.445l0.192-0.227z" fill="rgb(66, 78, 93)"></path>
	<path d="M79.267 30.63c0 0 0.316 0.383 0.81 0.383 0.343 0 0.619-0.223 0.619-0.557 0-0.775-1.545-0.619-1.545-1.59 0-0.436 0.378-0.802 0.957-0.802 0.303 0 0.846 0.129 0.846 0.539v0.223h-0.294v-0.147c0-0.187-0.258-0.325-0.548-0.325-0.405 0-0.641 0.236-0.641 0.503 0 0.726 1.545 0.548 1.545 1.581 0 0.468-0.361 0.864-0.948 0.864-0.641 0-0.993-0.445-0.993-0.445l0.192-0.227z" fill="rgb(66, 78, 93)"></path>
	<path d="M27.321 7.632c4.523 0 6.866 3.482 6.866 7.549 0 0.391-0.065 1.106-0.065 1.106h-12.56c0.065 4.132 2.961 6.508 6.344 6.508 2.994 0 4.913-2.018 4.913-2.018l1.075 1.66c0 0-2.376 2.342-6.085 2.342-4.848 0-8.558-3.514-8.558-8.558 0-5.369 3.677-8.59 8.070-8.59zM31.909 14.53c-0.13-3.384-2.213-5.044-4.621-5.044-2.7 0-5.076 1.757-5.629 5.044h10.25z" fill="rgb(66, 78, 93)"></path>
	<path d="M64.778 24.389v-2.571c0-0.65 0.065-1.171 0.065-1.171h-0.065c-0.651 1.595-2.799 4.132-6.378 4.132-3.872 0-5.499-2.083-5.499-6.345v-10.412h2.212v9.827c0 2.571 0.423 4.848 3.579 4.848 3.71 0 6.019-3.287 6.019-6.833v-7.842h2.213v16.367h-2.147z" fill="rgb(66, 78, 93)"></path>
	<path d="M71.386 20.387c0 0 1.822 2.473 5.043 2.473 1.823 0 3.449-0.878 3.449-2.603 0-3.579-9.176-2.928-9.176-8.2 0-2.961 2.538-4.425 5.824-4.425 1.659 0 4.978 0.651 4.978 2.961v1.399h-2.082v-0.781c0-1.204-1.757-1.66-2.831-1.66-2.278 0-3.644 0.781-3.644 2.375 0 3.677 9.176 2.831 9.176 8.265 0 2.733-2.473 4.588-5.727 4.588-4.262 0-6.28-2.863-6.28-2.863l1.269-1.529z" fill="rgb(66, 78, 93)"></path>
	<path d="M47.53 24.389l-11.581-16.757h2.571l11.613 16.757z" fill="rgb(66, 78, 93)"></path>
	<path d="M14.057 24.389v-9.826c0-2.571-0.39-4.849-3.547-4.849-2.798 0-5.205 1.92-5.954 4.621-0.196 0.684-0.26 1.432-0.26 2.212v7.842h-2.212v-13.731c0-0.456-0.261-0.716-0.716-0.716h-1.367v-1.92h2.278c1.365 0 1.984 0.586 1.984 1.822v0.748c0 0.651-0.065 1.171-0.065 1.171h0.065c0.586-1.497 2.668-4.132 6.508-4.132 4.067 0 5.499 2.31 5.499 6.345v10.412h-2.212z" fill="rgb(66, 78, 93)"></path>
	<path d="M83.509 9.35c0.653 0 1.174 0.529 1.174 1.191 0 0.67-0.521 1.195-1.174 1.195-0.64 0-1.158-0.525-1.158-1.195 0-0.662 0.518-1.191 1.158-1.191zM83.509 11.558c0.557 0 0.984-0.443 0.984-1.017 0-0.568-0.427-1.014-0.984-1.014-0.545 0-0.965 0.446-0.965 1.014 0 0.575 0.42 1.017 0.965 1.017zM83.541 9.872c0.361 0 0.535 0.305 0.535 0.305l-0.151 0.102c0 0-0.134-0.227-0.377-0.227-0.318 0-0.489 0.239-0.489 0.492s0.168 0.492 0.489 0.492c0.246 0 0.377-0.226 0.377-0.226l0.151 0.102c0 0-0.178 0.305-0.535 0.305-0.433 0-0.676-0.325-0.676-0.669 0-0.345 0.243-0.676 0.676-0.676z" fill="rgb(66, 78, 93)"></path>
	<path d="M30.63 32h2.571l9.73-14.599 1.982-0.545 11.039-16.856h-2.468l-9.777 15.117-2.189 0.6z" fill="url(#SVGID_1_)"></path>
</g>
</svg>
