<?xml version="1.0" encoding="utf-8"?>
<!-- Generator: Adobe Illustrator 15.0.0, SVG Export Plug-In . SVG Version: 6.00 Build 0)  -->
<svg version="1.2" baseProfile="tiny" id="Layer_1" xmlns="http://www.w3.org/2000/svg" xmlns:xlink="http://www.w3.org/1999/xlink"
	 x="0px" y="0px" width="260.012px" height="98.253px" viewBox="0 0 260.012 98.253" overflow="inherit" xml:space="preserve">
<g>
	<g>
		<path fill="#424E5D" d="M5.919,87.486c-0.068-0.26-0.246-0.301-0.506-0.301H5.249v-0.848h0.424c0.684,0,0.998,0.123,1.162,0.793
			l1.668,6.631c0.123,0.492,0.205,1.025,0.205,1.025h0.027c0,0,0.123-0.533,0.26-1.025l2.119-7.383h0.943l1.928,7.383
			c0.137,0.492,0.219,1.025,0.219,1.025h0.027c0,0,0.096-0.533,0.219-1.025l1.668-6.631c0.164-0.67,0.479-0.793,1.162-0.793h0.424
			v0.848h-0.15c-0.273,0-0.438,0.041-0.506,0.301l-2.215,8.463h-1.135l-1.791-6.686c-0.164-0.615-0.314-1.422-0.314-1.422h-0.027
			c0,0-0.164,0.793-0.342,1.408l-1.969,6.699H8.12L5.919,87.486z"/>
		<path fill="#424E5D" d="M31.427,86.173c2.721,0,4.895,2.146,4.895,4.908c0,2.816-2.174,5.031-4.895,5.031
			c-2.734,0-4.895-2.215-4.895-5.031C26.532,88.32,28.692,86.173,31.427,86.173z M31.427,95.21c2.146,0,3.896-1.805,3.896-4.129
			c0-2.27-1.75-4.006-3.896-4.006c-2.16,0-3.896,1.736-3.896,4.006C27.53,93.406,29.267,95.21,31.427,95.21z"/>
		<path fill="#424E5D" d="M46.501,87.185h-0.889v-0.848h4.074c1.613,0,2.762,1.066,2.762,2.734c0,1.49-0.916,2.365-1.859,2.57v0.027
			c0,0,0.191,0.109,0.328,0.383l1.381,2.734c0.137,0.287,0.342,0.314,0.684,0.314h0.191v0.848h-0.424
			c-0.779,0-1.012-0.096-1.326-0.725l-1.381-2.748c-0.26-0.506-0.438-0.574-0.971-0.574h-1.613v4.047h-0.957V87.185z M49.591,91.054
			c1.148,0,1.859-0.752,1.859-1.955c0-1.189-0.711-1.914-1.846-1.914h-2.146v3.869H49.591z"/>
		<path fill="#424E5D" d="M62.983,87.486c0-0.205-0.109-0.301-0.301-0.301h-0.588v-0.848h1.012c0.588,0,0.834,0.246,0.834,0.834
			V94.8c0,0.205,0.109,0.301,0.301,0.301h3.186c0.191,0,0.301-0.096,0.301-0.301v-0.643h0.902v0.957
			c0,0.588-0.246,0.834-0.834,0.834h-3.979c-0.588,0-0.834-0.246-0.834-0.834V87.486z"/>
		<path fill="#424E5D" d="M78.016,87.185h-0.889v-0.848h3.855c2.898,0,4.826,1.764,4.826,4.799c0,3.062-1.928,4.812-4.826,4.812
			H78.85c-0.588,0-0.834-0.246-0.834-0.834V87.185z M79.273,95.101h1.613c2.365,0,3.924-1.395,3.924-3.965
			c0-2.557-1.572-3.951-3.924-3.951h-1.914V94.8C78.973,95.005,79.082,95.101,79.273,95.101z"/>
		<path fill="#424E5D" d="M116.683,87.185h-0.889v-0.848h4.088c1.504,0,2.598,0.916,2.598,2.42c0,1.053-0.533,1.75-1.23,2.092v0.027
			c0.984,0.273,1.613,1.217,1.613,2.379c0,1.709-1.258,2.693-2.871,2.693h-2.475c-0.588,0-0.834-0.246-0.834-0.834V87.185z
			 M119.868,90.507c0.971,0,1.627-0.684,1.627-1.682c0-0.984-0.629-1.641-1.641-1.641h-2.215v3.322H119.868z M117.94,95.101h2.051
			c1.162,0,1.873-0.725,1.873-1.873s-0.766-1.9-1.887-1.9h-2.338V94.8C117.64,95.005,117.749,95.101,117.94,95.101z"/>
		<path fill="#424E5D" d="M133.097,87.486c0-0.205-0.109-0.301-0.301-0.301h-0.588v-0.848h1.012c0.588,0,0.834,0.246,0.834,0.834
			v5.441c0,1.6,1.012,2.598,2.584,2.598s2.598-0.998,2.598-2.625v-5.414c0-0.588,0.246-0.834,0.834-0.834h1.012v0.848h-0.588
			c-0.191,0-0.301,0.096-0.301,0.301v5.168c0,2.078-1.422,3.459-3.541,3.459s-3.555-1.381-3.555-3.459V87.486z"/>
		<path fill="#424E5D" d="M150.85,94.048c0,0,0.971,1.176,2.488,1.176c1.053,0,1.9-0.684,1.9-1.709c0-2.379-4.744-1.9-4.744-4.881
			c0-1.34,1.162-2.461,2.939-2.461c0.93,0,2.598,0.396,2.598,1.654v0.684h-0.902V88.06c0-0.574-0.793-0.998-1.682-0.998
			c-1.244,0-1.969,0.725-1.969,1.545c0,2.229,4.744,1.682,4.744,4.854c0,1.436-1.107,2.652-2.912,2.652
			c-1.969,0-3.049-1.367-3.049-1.367L150.85,94.048z"/>
		<path fill="#424E5D" d="M166.142,94.048c0,0,0.971,1.176,2.488,1.176c1.053,0,1.9-0.684,1.9-1.709c0-2.379-4.744-1.9-4.744-4.881
			c0-1.34,1.162-2.461,2.939-2.461c0.93,0,2.598,0.396,2.598,1.654v0.684h-0.902V88.06c0-0.574-0.793-0.998-1.682-0.998
			c-1.244,0-1.969,0.725-1.969,1.545c0,2.229,4.744,1.682,4.744,4.854c0,1.436-1.107,2.652-2.912,2.652
			c-1.969,0-3.049-1.367-3.049-1.367L166.142,94.048z"/>
		<path fill="#424E5D" d="M180.969,95.101h0.902v-7.916h-0.902v-0.848h2.748v0.848h-0.916v7.916h0.916v0.848h-2.748V95.101z"/>
		<path fill="#424E5D" d="M193.129,95.101h0.588c0.191,0,0.301-0.096,0.301-0.301v-8.463h0.875l4.908,6.85
			c0.328,0.479,0.779,1.258,0.779,1.258h0.027c0,0-0.068-0.752-0.068-1.258v-6.016c0-0.588,0.246-0.834,0.834-0.834h1.012v0.848
			h-0.588c-0.191,0-0.301,0.096-0.301,0.301v8.463h-0.875l-4.908-6.85c-0.342-0.465-0.793-1.244-0.793-1.244h-0.027
			c0,0,0.082,0.738,0.082,1.244v6.016c0,0.588-0.246,0.834-0.834,0.834h-1.012V95.101z"/>
		<path fill="#424E5D" d="M212.619,87.185h-0.889v-0.848h5.496c0.588,0,0.834,0.246,0.834,0.834v0.957h-0.902v-0.643
			c0-0.205-0.109-0.301-0.301-0.301h-3.281v3.5h3.609v0.848h-3.609V94.8c0,0.205,0.109,0.301,0.301,0.301h3.377
			c0.191,0,0.301-0.096,0.301-0.301v-0.643h0.889v0.957c0,0.588-0.246,0.834-0.834,0.834h-4.156c-0.588,0-0.834-0.246-0.834-0.834
			V87.185z"/>
		<path fill="#424E5D" d="M228.089,94.048c0,0,0.971,1.176,2.488,1.176c1.053,0,1.9-0.684,1.9-1.709c0-2.379-4.744-1.9-4.744-4.881
			c0-1.34,1.162-2.461,2.939-2.461c0.93,0,2.598,0.396,2.598,1.654v0.684h-0.902V88.06c0-0.574-0.793-0.998-1.682-0.998
			c-1.244,0-1.969,0.725-1.969,1.545c0,2.229,4.744,1.682,4.744,4.854c0,1.436-1.107,2.652-2.912,2.652
			c-1.969,0-3.049-1.367-3.049-1.367L228.089,94.048z"/>
		<path fill="#424E5D" d="M243.381,94.048c0,0,0.971,1.176,2.488,1.176c1.053,0,1.9-0.684,1.9-1.709c0-2.379-4.744-1.9-4.744-4.881
			c0-1.34,1.162-2.461,2.939-2.461c0.93,0,2.598,0.396,2.598,1.654v0.684h-0.902V88.06c0-0.574-0.793-0.998-1.682-0.998
			c-1.244,0-1.969,0.725-1.969,1.545c0,2.229,4.744,1.682,4.744,4.854c0,1.436-1.107,2.652-2.912,2.652
			c-1.969,0-3.049-1.367-3.049-1.367L243.381,94.048z"/>
	</g>
	<g>
		<path fill="#424E5D" d="M83.888,23.433c13.886,0,21.081,10.69,21.081,23.179c0,1.2-0.201,3.397-0.201,3.397H66.204
			c0.2,12.688,9.091,19.982,19.48,19.982c9.193,0,15.085-6.195,15.085-6.195l3.3,5.097c0,0-7.295,7.192-18.685,7.192
			c-14.886,0-26.275-10.79-26.275-26.276C59.109,33.324,70.399,23.433,83.888,23.433z M97.975,44.614
			c-0.4-10.391-6.795-15.486-14.188-15.486c-8.291,0-15.586,5.394-17.283,15.486H97.975z"/>
		<path fill="#424E5D" d="M198.895,74.885v-7.894c0-1.996,0.199-3.596,0.199-3.596h-0.199c-2,4.896-8.593,12.688-19.583,12.688
			c-11.888,0-16.883-6.395-16.883-19.481V24.632h6.793v30.172c0,7.893,1.299,14.886,10.99,14.886
			c11.39,0,18.482-10.091,18.482-20.979V24.632h6.794v50.253H198.895z"/>
		<path fill="#424E5D" d="M219.184,62.597c0,0,5.594,7.593,15.484,7.593c5.597,0,10.59-2.696,10.59-7.993
			c0-10.99-28.173-8.991-28.173-25.176c0-9.092,7.792-13.587,17.883-13.587c5.095,0,15.285,1.999,15.285,9.091v4.297h-6.393v-2.398
			c0-3.697-5.396-5.096-8.692-5.096c-6.994,0-11.19,2.398-11.19,7.293c0,11.29,28.175,8.692,28.175,25.378
			c0,8.392-7.593,14.086-17.583,14.086c-13.087,0-19.282-8.792-19.282-8.792L219.184,62.597z"/>
		<polygon fill="#424E5D" points="145.936,74.885 110.379,23.433 118.274,23.433 153.93,74.885 		"/>
		<g>
			<path fill="#424E5D" d="M43.16,74.885V44.714c0-7.893-1.197-14.887-10.892-14.887c-8.591,0-15.983,5.895-18.281,14.188
				c-0.601,2.099-0.799,4.396-0.799,6.793v24.078H6.395v-42.16c0-1.4-0.8-2.199-2.197-2.199H0v-5.895h6.995
				c4.192,0,6.092,1.798,6.092,5.595v2.297c0,1.998-0.199,3.597-0.199,3.597h0.199c1.799-4.595,8.191-12.688,19.982-12.688
				c12.486,0,16.884,7.094,16.884,19.482v31.97H43.16z"/>
		</g>
		<g>
			<path fill="#424E5D" d="M256.406,28.709c2.005,0,3.605,1.623,3.605,3.656c0,2.057-1.601,3.668-3.605,3.668
				c-1.966,0-3.556-1.611-3.556-3.668C252.851,30.332,254.44,28.709,256.406,28.709z M256.406,35.489
				c1.711,0,3.021-1.36,3.021-3.124c0-1.743-1.311-3.112-3.021-3.112c-1.673,0-2.963,1.37-2.963,3.112
				C253.443,34.129,254.733,35.489,256.406,35.489z M256.506,30.311c1.108,0,1.644,0.937,1.644,0.937l-0.465,0.313
				c0,0-0.412-0.696-1.159-0.696c-0.976,0-1.501,0.735-1.501,1.511c0,0.777,0.517,1.512,1.501,1.512
				c0.756,0,1.159-0.695,1.159-0.695l0.465,0.312c0,0-0.546,0.937-1.644,0.937c-1.328,0-2.075-0.998-2.075-2.054
				C254.431,31.328,255.178,30.311,256.506,30.311z"/>
		</g>
	</g>
	<linearGradient id="SVGID_1_" gradientUnits="userSpaceOnUse" x1="94.0459" y1="49.1265" x2="171.7939" y2="49.1265">
		<stop  offset="0" style="stop-color:#009CDF"/>
		<stop  offset="0.1678" style="stop-color:#049DE0"/>
		<stop  offset="0.3476" style="stop-color:#11A1E1"/>
		<stop  offset="0.5329" style="stop-color:#27A7E4"/>
		<stop  offset="0.7219" style="stop-color:#45B0E7"/>
		<stop  offset="0.9121" style="stop-color:#6BBBEC"/>
		<stop  offset="1" style="stop-color:#7FC1EE"/>
	</linearGradient>
	<polygon fill="url(#SVGID_1_)" points="94.046,98.253 101.939,98.253 131.814,53.429 137.9,51.755 171.794,0 164.216,0 
		134.197,46.415 127.476,48.258 	"/>
</g>
</svg>
