<?xml version="1.0" encoding="utf-8"?>
<!-- Generator: Adobe Illustrator 15.0.0, SVG Export Plug-In  -->
<!DOCTYPE svg PUBLIC "-//W3C//DTD SVG 1.1 Tiny//EN" "http://www.w3.org/Graphics/SVG/1.1/DTD/svg11-tiny.dtd" [
	<!ENTITY ns_flows "http://ns.adobe.com/Flows/1.0/">
]>
<svg version="1.1" baseProfile="tiny"
	 xmlns="http://www.w3.org/2000/svg" xmlns:xlink="http://www.w3.org/1999/xlink" xmlns:a="http://ns.adobe.com/AdobeSVGViewerExtensions/3.0/"
	 x="0px" y="0px" width="335px" height="202px" viewBox="0.198 0 335 202" overflow="visible" xml:space="preserve">
<defs>
</defs>
<path fill="#FCD1AB" d="M99.409,168.087c-3.047,9.88-6.866,19.176-11.196,28.557c-0.216,0.468,0.477,0.876,0.694,0.406
	c4.362-9.45,8.207-18.796,11.277-28.749C100.337,167.804,99.562,167.593,99.409,168.087"/>
<path fill="#F7B9A9" d="M139.268,168.087c-1.083,3.317-1.978,6.767-2.048,10.274c-0.011,0.519,0.793,0.518,0.804,0
	c0.069-3.436,0.958-6.812,2.019-10.061C140.205,167.807,139.428,167.597,139.268,168.087"/>
<path fill="#E79FC6" d="M193.998,168.077c1.959,11.111,2.109,22.444,4.067,33.556c0.09,0.51,0.864,0.293,0.775-0.214
	c-1.958-11.111-2.108-22.443-4.067-33.555C194.683,167.354,193.909,167.571,193.998,168.077"/>
<path fill="#E79FC6" d="M257.883,151.191c2.25,2.249,4.559,4.374,7.199,6.164c0.431,0.292,0.833-0.405,0.406-0.694
	c-2.585-1.752-4.835-3.838-7.037-6.038C258.084,150.256,257.516,150.824,257.883,151.191"/>
<path fill="#B997C5" d="M303.721,121.768c9.657,4.201,20.203,6.093,30.708,6.154c0.519,0.004,0.518-0.8,0-0.804
	c-10.354-0.061-20.779-1.902-30.302-6.045C303.657,120.868,303.247,121.561,303.721,121.768"/>
<path fill="#B997C5" d="M314.377,86.619c0.993-0.905,2.517-0.898,3.782-0.899c0.519,0,0.519-0.804,0-0.804
	c-1.503,0.001-3.181,0.068-4.351,1.134C313.424,86.4,313.994,86.967,314.377,86.619"/>
<path fill="#98B0DA" d="M290.175,56.112c8.106-8.984,18.423-15.431,27.455-23.387c0.39-0.343-0.182-0.909-0.568-0.567
	c-9.031,7.955-19.348,14.401-27.455,23.386C289.261,55.928,289.827,56.499,290.175,56.112"/>
<path fill="#72BF97" d="M241.085,40.415c2.097-1.119,3.186-3.179,4.211-5.228c0.231-0.463-0.462-0.869-0.694-0.406
	c-0.961,1.922-1.951,3.887-3.922,4.94C240.222,39.966,240.627,40.66,241.085,40.415"/>
<path fill="#74BFDE" d="M203.411,27.867c1.059-9.566,6.289-18.865,10.681-27.26c0.24-0.458-0.454-0.865-0.694-0.405
	c-4.453,8.51-9.717,17.966-10.791,27.666C202.55,28.382,203.355,28.377,203.411,27.867"/>
<path fill="#72BF97" d="M158.98,24.309c0.001-2.042,0.086-4.016,0.962-5.898c0.216-0.467-0.476-0.875-0.694-0.406
	c-0.942,2.026-1.07,4.103-1.072,6.305C158.175,24.827,158.979,24.827,158.98,24.309"/>
<path fill="#7FBE6D" d="M110.611,24.202c-1.747-5.434-2.955-11.474-3.035-17.18c-0.007-0.518-0.811-0.519-0.804,0
	c0.082,5.786,1.295,11.893,3.064,17.393C109.994,24.906,110.77,24.696,110.611,24.202"/>
<path fill="#AECB54" d="M65.691,48.097c-1.101-3.121-2.884-5.94-5.188-8.312c-0.361-0.372-0.929,0.196-0.568,0.568
	c2.207,2.271,3.927,4.969,4.982,7.957C65.088,48.796,65.864,48.587,65.691,48.097"/>
<path fill="#E2DF2A" d="M32.641,66.16c-6.486-4.339-12.833-8.882-19.319-13.219c-0.432-0.289-0.834,0.407-0.406,0.693
	c6.487,4.338,12.834,8.881,19.32,13.22C32.667,67.143,33.069,66.447,32.641,66.16"/>
<path fill="#E2DF2A" d="M22.472,96.663c-2.025-0.94-4.101-1.068-6.304-1.07c-0.518-0.001-0.518,0.803,0,0.804
	c2.042,0.002,4.015,0.086,5.898,0.961C22.534,97.574,22.942,96.882,22.472,96.663"/>
<path fill="#FED47E" d="M25.722,124.082c-8.764,1.956-17.423,4.197-25.517,8.175c-0.464,0.229-0.058,0.922,0.407,0.694
	c8.032-3.948,16.627-6.153,25.323-8.094C26.441,124.744,26.227,123.969,25.722,124.082"/>
<path fill="#FED47E" d="M56.557,145.539c-2.533,2.575-4.598,5.554-7.117,8.134c-0.362,0.371,0.206,0.94,0.568,0.568
	c2.52-2.58,4.585-5.559,7.118-8.134C57.489,145.738,56.921,145.169,56.557,145.539"/>
<path fill="#FFFFFF" d="M79.157,89.054c2.236-3.118,5.766-5.001,9.708-5.001c7.235,0,12.06,3.529,12.06,11.001v21.009h-8.001V96.23
	c0-3.236-2.176-4.647-5.47-4.647c-4.059,0-7.059,2.764-7.824,5.176v19.304h-7.941V93.289l-0.53-8.413h7.354L79.157,89.054z"/>
<path fill="#FFFFFF" d="M116.633,79.759h-8.824v-8.824h8.824V79.759z M108.221,84.877h8v31.186h-8V84.877z"/>
<path fill="#FFFFFF" d="M145.871,111.12c-1.942,2.295-5,4.118-9.588,4.118c-7.883,0-13.472-5.001-13.472-15.597
	c0-10.589,5.589-15.589,13.472-15.589c5.059,0,8.235,2.176,10.118,4.823l0.647-3.999h7.353l-0.529,8.412v23.243
	c0,8.236-6.353,12.118-15.296,12.118c-9.941,0-14.353-3.588-14.882-9.823l8.294-1.177c0.294,2.471,2,3.94,6.412,3.823
	c4.53-0.059,7.236-1.47,7.471-4.824V111.12z M138.399,107.708c4.118,0,6.883-2.646,7.471-5.235v-5.655
	c-0.588-2.587-3.354-5.235-7.471-5.235c-4.118,0-7.235,2.06-7.235,8.06C131.164,105.649,134.281,107.708,138.399,107.708"/>
<path fill="#FFFFFF" d="M169.108,68.993v19.413c2.294-2.766,5.646-4.354,9.471-4.354c7,0,11.824,3.529,11.824,11.001v21.009h-8
	V96.229c0-3.235-2.177-4.647-5.471-4.647c-4.059,0-7.06,2.765-7.824,5.177v19.304h-8V68.993H169.108z"/>
<rect x="196.64" y="107.238" fill="#FFFFFF" width="8.824" height="8.824"/>
<path fill="#FFFFFF" d="M221.113,79.759h-8.824v-8.824h8.824V79.759z M212.702,84.877h8v31.186h-8V84.877z"/>
<path fill="#FFFFFF" d="M227.292,100.469c0-10.828,5.882-16.416,15.294-16.416c9.413,0,15.295,5.588,15.295,16.416
	c0,10.829-5.883,16.416-15.295,16.416C233.174,116.885,227.292,111.298,227.292,100.469 M235.527,100.469
	c0,6.475,2.707,8.945,7.06,8.945s7.06-2.471,7.06-8.945s-2.707-8.944-7.06-8.944S235.527,93.994,235.527,100.469"/>
</svg>
